# xmcd
#
# Track frame offsets:
#	150
#	17785
#	34890
#	74064
#	106186
#	134513
#	168622
#	186762
#	207546
#	224854
#	246093
#	269949
#	296282
#	322134
#
# Disc length: 4503 seconds
#
# Revision: 1
# Processed by: cddbd v1.5.1PL0 Copyright (c) Steve Scherf et al.
# Submitted via: audiograbber 1.83.01
#
DISCID=f211950e
DTITLE=sonnemondsterne compilation 05 - WILDBRETT
DYEAR=1900
DGENRE=
TTITLE0=Röyksopp - Only This Moment 
TTITLE1=The Chemical Brothers  - Believe (Mathew Johnson Remix Edit)
TTITLE2=Depeche Mode - Enjoy The Silence (Timo Maas Remix)
TTITLE3=Zoot Woman  - Grey Day (Paperface Remix)
TTITLE4=Die Fantastischen Vier  - Troy (Turntablerocker Remix)
TTITLE5=Tiefschwarz - Isst! (Dominik Eulberg Remix)
TTITLE6=Benjamin Diamond  - There Is A Girl 
TTITLE7=International Pony - Our House (Mama Version)
TTITLE8=Andreas Dorau - Die Besondere 
TTITLE9=Munk feat. James Murphy  - Kick Out The Chairs 
TTITLE10=Ellen Allien  - The Brain Is Lost 
TTITLE11=Mediengruppe Telekommander  - Bis Zum Erbrechen Schrein (Tim Wright Re
TTITLE11=mix)
TTITLE12=Egoexpress  - Hot Wire My Heart 
TTITLE13=T.Raumschmiere  - Diving In Whisky feat. Ellen Allien. 
EXTD=
EXTT0=
EXTT1=
EXTT2=
EXTT3=
EXTT4=
EXTT5=
EXTT6=
EXTT7=
EXTT8=
EXTT9=
EXTT10=
EXTT11=
EXTT12=
EXTT13=
PLAYORDER=
